<svg version="1.1" xmlns="http://www.w3.org/2000/svg" viewBox="0 0 733 602" width="733" height="602" class="waitForSvg">
  <!-- svg-source:excalidraw -->
  
  <defs>
    <style class="style-fonts">
      @font-face {
        font-family: "Virgil";
        src: url("https://unpkg.com/@excalidraw/excalidraw@undefined/dist/excalidraw-assets/Virgil.woff2");
      }
      @font-face {
        font-family: "Cascadia";
        src: url("https://unpkg.com/@excalidraw/excalidraw@undefined/dist/excalidraw-assets/Cascadia.woff2");
      }
      @font-face {
        font-family: "Assistant";
        src: url("https://unpkg.com/@excalidraw/excalidraw@undefined/dist/excalidraw-assets/Assistant-Regular.woff2");
      }
    </style>
    
  </defs>
  <rect x="0" y="0" width="733" height="602" fill="#ffffff"></rect><g stroke-linecap="round" transform="translate(10 10) rotate(0 75 32.5)"><path d="M0 0 C58.24 0, 116.47 0, 150 0 M0 0 C32.26 0, 64.52 0, 150 0 M150 0 C150 15.29, 150 30.58, 150 65 M150 0 C150 18.5, 150 37.01, 150 65 M150 65 C103.4 65, 56.8 65, 0 65 M150 65 C101.09 65, 52.18 65, 0 65 M0 65 C0 39.78, 0 14.56, 0 0 M0 65 C0 46.03, 0 27.07, 0 0" stroke="#1e1e1e" stroke-width="2" fill="none"></path></g><g stroke-linecap="round" transform="translate(10 527) rotate(0 75 32.5)"><path d="M0 0 C47.55 0, 95.1 0, 150 0 M0 0 C40.27 0, 80.54 0, 150 0 M150 0 C150 21.25, 150 42.51, 150 65 M150 0 C150 25.12, 150 50.25, 150 65 M150 65 C90.32 65, 30.65 65, 0 65 M150 65 C118.86 65, 87.73 65, 0 65 M0 65 C0 39.35, 0 13.7, 0 0 M0 65 C0 49.51, 0 34.02, 0 0" stroke="#1e1e1e" stroke-width="2" fill="none"></path></g><g stroke-linecap="round" transform="translate(357 10) rotate(0 75 32.5)"><path d="M0 0 C35.4 0, 70.8 0, 150 0 M0 0 C50.8 0, 101.6 0, 150 0 M150 0 C150 13.71, 150 27.43, 150 65 M150 0 C150 15.56, 150 31.12, 150 65 M150 65 C118.03 65, 86.06 65, 0 65 M150 65 C104.64 65, 59.28 65, 0 65 M0 65 C0 44.03, 0 23.07, 0 0 M0 65 C0 49.35, 0 33.7, 0 0" stroke="#1e1e1e" stroke-width="2" fill="none"></path></g><g stroke-linecap="round" transform="translate(357 527) rotate(0 75 32.5)"><path d="M0 0 C54.84 0, 109.67 0, 150 0 M0 0 C36.11 0, 72.22 0, 150 0 M150 0 C150 18.91, 150 37.81, 150 65 M150 0 C150 18.26, 150 36.51, 150 65 M150 65 C90.5 65, 31.01 65, 0 65 M150 65 C118.29 65, 86.58 65, 0 65 M0 65 C0 44.76, 0 24.52, 0 0 M0 65 C0 40.09, 0 15.19, 0 0" stroke="#1e1e1e" stroke-width="2" fill="none"></path></g><g stroke-linecap="round" transform="translate(573 10) rotate(0 75 32.5)"><path d="M0 0 C56.69 0, 113.38 0, 150 0 M0 0 C36.34 0, 72.69 0, 150 0 M150 0 C150 14.11, 150 28.21, 150 65 M150 0 C150 17.82, 150 35.65, 150 65 M150 65 C117.28 65, 84.55 65, 0 65 M150 65 C94.79 65, 39.58 65, 0 65 M0 65 C0 42.08, 0 19.16, 0 0 M0 65 C0 47.91, 0 30.81, 0 0" stroke="#1e1e1e" stroke-width="2" fill="none"></path></g><g stroke-linecap="round" transform="translate(573 527) rotate(0 75 32.5)"><path d="M0 0 C30.77 0, 61.53 0, 150 0 M0 0 C35.38 0, 70.77 0, 150 0 M150 0 C150 14.25, 150 28.5, 150 65 M150 0 C150 22.66, 150 45.32, 150 65 M150 65 C102.86 65, 55.72 65, 0 65 M150 65 C114.32 65, 78.64 65, 0 65 M0 65 C0 48.88, 0 32.76, 0 0 M0 65 C0 46.61, 0 28.21, 0 0" stroke="#1e1e1e" stroke-width="2" fill="none"></path></g><g stroke-linecap="round"><g transform="translate(85 75) rotate(0 0 226)"><path d="M0 0 C0 152.77, 0 305.54, 0 452 M0 0 C0 169.41, 0 338.81, 0 452" stroke="#999" stroke-width="1" fill="none"></path></g></g><mask></mask><g stroke-linecap="round"><g transform="translate(432 75) rotate(0 0 226)"><path d="M0 0 C0 97.21, 0 194.43, 0 452 M0 0 C0 106.32, 0 212.64, 0 452" stroke="#999" stroke-width="1" fill="none"></path></g></g><mask></mask><g stroke-linecap="round"><g transform="translate(648 75) rotate(0 0 226)"><path d="M0 0 C0 121.34, 0 242.69, 0 452 M0 0 C0 147.79, 0 295.59, 0 452" stroke="#999" stroke-width="1" fill="none"></path></g></g><mask></mask><g mask="url(#mask-Mi3x1Pa3ZvHvjpWyUXsuh)" stroke-linecap="round"><g transform="translate(85.5 119) rotate(0 173 0)"><path d="M0 0 C57.67 0, 288.33 0, 346 0 M0 0 C57.67 0, 288.33 0, 346 0" stroke="#1e1e1e" stroke-width="2" fill="none"></path></g><g transform="translate(85.5 119) rotate(0 173 0)"><path d="M317.81 10.26 C327.36 6.79, 336.9 3.31, 346 0 M317.81 10.26 C323.76 8.1, 329.71 5.93, 346 0" stroke="#1e1e1e" stroke-width="2" fill="none"></path></g><g transform="translate(85.5 119) rotate(0 173 0)"><path d="M317.81 -10.26 C327.36 -6.79, 336.9 -3.31, 346 0 M317.81 -10.26 C323.76 -8.1, 329.71 -5.93, 346 0" stroke="#1e1e1e" stroke-width="2" fill="none"></path></g></g><mask id="mask-Mi3x1Pa3ZvHvjpWyUXsuh"><rect x="0" y="0" fill="#fff" width="532.5" height="219"></rect><rect x="159.5" y="100.6" fill="#000" width="198" height="36.8" opacity="1"></rect></mask><g mask="url(#mask-2J_85s_H3ppcEyh8Y22an)" stroke-linecap="round"><g transform="translate(432.5 173) rotate(0 107.5 0)"><path d="M0 0 C35.83 0, 179.17 0, 215 0 M0 0 C35.83 0, 179.17 0, 215 0" stroke="#1e1e1e" stroke-width="2" fill="none"></path></g><g transform="translate(432.5 173) rotate(0 107.5 0)"><path d="M186.81 10.26 C193.6 7.79, 200.38 5.32, 215 0 M186.81 10.26 C195.01 7.28, 203.21 4.29, 215 0" stroke="#1e1e1e" stroke-width="2" fill="none"></path></g><g transform="translate(432.5 173) rotate(0 107.5 0)"><path d="M186.81 -10.26 C193.6 -7.79, 200.38 -5.32, 215 0 M186.81 -10.26 C195.01 -7.28, 203.21 -4.29, 215 0" stroke="#1e1e1e" stroke-width="2" fill="none"></path></g></g><mask id="mask-2J_85s_H3ppcEyh8Y22an"><rect x="0" y="0" fill="#fff" width="748.5" height="273"></rect><rect x="465.5" y="163.8" fill="#000" width="149" height="18.4" opacity="1"></rect></mask><g mask="url(#mask-ER6GUnJfg8t_-ePqaP7qd)" stroke-linecap="round"><g transform="translate(647.5 227) rotate(0 -107.5 0)"><path d="M0 0 C-35.83 0, -179.17 0, -215 0" stroke="#1e1e1e" stroke-width="2.5" fill="none" stroke-dasharray="1.5 8"></path></g><g transform="translate(647.5 227) rotate(0 -107.5 0)"><path d="M-186.81 -10.26 C-193.64 -7.77, -200.47 -5.29, -215 0" stroke="#1e1e1e" stroke-width="2.5" fill="none" stroke-dasharray="1.5 6"></path></g><g transform="translate(647.5 227) rotate(0 -107.5 0)"><path d="M-186.81 10.26 C-193.64 7.77, -200.47 5.29, -215 0" stroke="#1e1e1e" stroke-width="2.5" fill="none" stroke-dasharray="1.5 6"></path></g></g><mask id="mask-ER6GUnJfg8t_-ePqaP7qd"><rect x="0" y="0" fill="#fff" width="963.5" height="327"></rect><rect x="477.5" y="217.8" fill="#000" width="125" height="18.4" opacity="1"></rect></mask><g mask="url(#mask-7Dp8aohu4hDebH1Udfzqt)" stroke-linecap="round"><g transform="translate(431.5 281) rotate(0 -173 0)"><path d="M0 0 C-57.67 0, -288.33 0, -346 0" stroke="#1e1e1e" stroke-width="2.5" fill="none" stroke-dasharray="1.5 8"></path></g><g transform="translate(431.5 281) rotate(0 -173 0)"><path d="M-317.81 -10.26 C-324.46 -7.84, -331.11 -5.42, -346 0" stroke="#1e1e1e" stroke-width="2.5" fill="none" stroke-dasharray="1.5 6"></path></g><g transform="translate(431.5 281) rotate(0 -173 0)"><path d="M-317.81 10.26 C-324.46 7.84, -331.11 5.42, -346 0" stroke="#1e1e1e" stroke-width="2.5" fill="none" stroke-dasharray="1.5 6"></path></g></g><mask id="mask-7Dp8aohu4hDebH1Udfzqt"><rect x="0" y="0" fill="#fff" width="878.5" height="381"></rect><rect x="161.5" y="271.79999999999995" fill="#000" width="194" height="18.4" opacity="1"></rect></mask><g mask="url(#mask-Ig_3Ygf_eBwXLl2Wc3r4O)" stroke-linecap="round"><g transform="translate(90.5 335) rotate(0 170.5 0)"><path d="M0 0 C56.83 0, 284.17 0, 341 0 M0 0 C56.83 0, 284.17 0, 341 0" stroke="#1e1e1e" stroke-width="2" fill="none"></path></g><g transform="translate(90.5 335) rotate(0 170.5 0)"><path d="M312.81 10.26 C323.37 6.42, 333.94 2.57, 341 0 M312.81 10.26 C323.5 6.37, 334.19 2.48, 341 0" stroke="#1e1e1e" stroke-width="2" fill="none"></path></g><g transform="translate(90.5 335) rotate(0 170.5 0)"><path d="M312.81 -10.26 C323.37 -6.42, 333.94 -2.57, 341 0 M312.81 -10.26 C323.5 -6.37, 334.19 -2.48, 341 0" stroke="#1e1e1e" stroke-width="2" fill="none"></path></g></g><mask id="mask-Ig_3Ygf_eBwXLl2Wc3r4O"><rect x="0" y="0" fill="#fff" width="532.5" height="435"></rect><rect x="152" y="325.79999999999995" fill="#000" width="218" height="18.4" opacity="1"></rect></mask><g mask="url(#mask-BF2Atse94r01DOaCpSnhi)" stroke-linecap="round"><g transform="translate(432.5 389) rotate(0 107.5 0)"><path d="M0 0 C35.83 0, 179.17 0, 215 0 M0 0 C35.83 0, 179.17 0, 215 0" stroke="#1e1e1e" stroke-width="2" fill="none"></path></g><g transform="translate(432.5 389) rotate(0 107.5 0)"><path d="M186.81 10.26 C193.44 7.85, 200.07 5.43, 215 0 M186.81 10.26 C194.83 7.34, 202.86 4.42, 215 0" stroke="#1e1e1e" stroke-width="2" fill="none"></path></g><g transform="translate(432.5 389) rotate(0 107.5 0)"><path d="M186.81 -10.26 C193.44 -7.85, 200.07 -5.43, 215 0 M186.81 -10.26 C194.83 -7.34, 202.86 -4.42, 215 0" stroke="#1e1e1e" stroke-width="2" fill="none"></path></g></g><mask id="mask-BF2Atse94r01DOaCpSnhi"><rect x="0" y="0" fill="#fff" width="748.5" height="489"></rect><rect x="473.5" y="379.79999999999995" fill="#000" width="133" height="18.4" opacity="1"></rect></mask><g mask="url(#mask-lQskJ9sBaOxPcyq6syv8L)" stroke-linecap="round"><g transform="translate(647.5 443) rotate(0 -107.5 0)"><path d="M0 0 C-35.83 0, -179.17 0, -215 0" stroke="#1e1e1e" stroke-width="2.5" fill="none" stroke-dasharray="1.5 8"></path></g><g transform="translate(647.5 443) rotate(0 -107.5 0)"><path d="M-186.81 -10.26 C-196.03 -6.91, -205.24 -3.55, -215 0" stroke="#1e1e1e" stroke-width="2.5" fill="none" stroke-dasharray="1.5 6"></path></g><g transform="translate(647.5 443) rotate(0 -107.5 0)"><path d="M-186.81 10.26 C-196.03 6.91, -205.24 3.55, -215 0" stroke="#1e1e1e" stroke-width="2.5" fill="none" stroke-dasharray="1.5 6"></path></g></g><mask id="mask-lQskJ9sBaOxPcyq6syv8L"><rect x="0" y="0" fill="#fff" width="963.5" height="543"></rect><rect x="495" y="433.79999999999995" fill="#000" width="90" height="18.4" opacity="1"></rect></mask><g mask="url(#mask-sgcXGxRiDZq8fyEr6AR3k)" stroke-linecap="round"><g transform="translate(431.5 497) rotate(0 -173 0)"><path d="M0 0 C-57.67 0, -288.33 0, -346 0" stroke="#1e1e1e" stroke-width="2.5" fill="none" stroke-dasharray="1.5 8"></path></g><g transform="translate(431.5 497) rotate(0 -173 0)"><path d="M-317.81 -10.26 C-323.76 -8.1, -329.71 -5.93, -346 0" stroke="#1e1e1e" stroke-width="2.5" fill="none" stroke-dasharray="1.5 6"></path></g><g transform="translate(431.5 497) rotate(0 -173 0)"><path d="M-317.81 10.26 C-323.76 8.1, -329.71 5.93, -346 0" stroke="#1e1e1e" stroke-width="2.5" fill="none" stroke-dasharray="1.5 6"></path></g></g><mask id="mask-sgcXGxRiDZq8fyEr6AR3k"><rect x="0" y="0" fill="#fff" width="878.5" height="597"></rect><rect x="176" y="487.79999999999995" fill="#000" width="165" height="18.4" opacity="1"></rect></mask><g stroke-linecap="round" transform="translate(80 291) rotate(0 5 27)"><path d="M0 0 L10 0 L10 54 L0 54" stroke="none" stroke-width="0" fill="#e9ecef"></path><path d="M0 0 C2.91 0, 5.82 0, 10 0 M0 0 C2.81 0, 5.62 0, 10 0 M10 0 C10 21.42, 10 42.84, 10 54 M10 0 C10 11.42, 10 22.83, 10 54 M10 54 C6.89 54, 3.77 54, 0 54 M10 54 C6.17 54, 2.34 54, 0 54 M0 54 C0 40.7, 0 27.4, 0 0 M0 54 C0 42.16, 0 30.33, 0 0" stroke="#1e1e1e" stroke-width="2" fill="none"></path></g><g transform="translate(53.5 33.3) rotate(0 31.5 9.200000000000001)"><text x="31.5" y="0" font-family="Helvetica, Segoe UI Emoji" font-size="16px" fill="#000" text-anchor="middle" style="white-space: pre;" direction="ltr" dominant-baseline="text-before-edge">Browser</text></g><g transform="translate(53.5 550.3) rotate(0 31.5 9.199999999999989)"><text x="31.5" y="0" font-family="Helvetica, Segoe UI Emoji" font-size="16px" fill="#000" text-anchor="middle" style="white-space: pre;" direction="ltr" dominant-baseline="text-before-edge">Browser</text></g><g transform="translate(407.5 33.3) rotate(0 24.5 9.200000000000001)"><text x="24.5" y="0" font-family="Helvetica, Segoe UI Emoji" font-size="16px" fill="#000" text-anchor="middle" style="white-space: pre;" direction="ltr" dominant-baseline="text-before-edge">Server</text></g><g transform="translate(407.5 550.3) rotate(0 24.5 9.199999999999989)"><text x="24.5" y="0" font-family="Helvetica, Segoe UI Emoji" font-size="16px" fill="#000" text-anchor="middle" style="white-space: pre;" direction="ltr" dominant-baseline="text-before-edge">Server</text></g><g transform="translate(612 33.3) rotate(0 36 9.200000000000001)"><text x="36" y="0" font-family="Helvetica, Segoe UI Emoji" font-size="16px" fill="#000" text-anchor="middle" style="white-space: pre;" direction="ltr" dominant-baseline="text-before-edge">Database</text></g><g transform="translate(612 550.3) rotate(0 36 9.199999999999989)"><text x="36" y="0" font-family="Helvetica, Segoe UI Emoji" font-size="16px" fill="#000" text-anchor="middle" style="white-space: pre;" direction="ltr" dominant-baseline="text-before-edge">Database</text></g><g transform="translate(159.5 100.6) rotate(0 99 18.400000000000006)"><text x="99" y="0" font-family="Helvetica, Segoe UI Emoji" font-size="16px" fill="#1e1e1e" text-anchor="middle" style="white-space: pre;" direction="ltr" dominant-baseline="text-before-edge">Request /auth/signin with </text><text x="99" y="18.4" font-family="Helvetica, Segoe UI Emoji" font-size="16px" fill="#1e1e1e" text-anchor="middle" style="white-space: pre;" direction="ltr" dominant-baseline="text-before-edge">credentials</text></g><g transform="translate(465.5 163.8) rotate(0 74.5 9.199999999999989)"><text x="74.5" y="0" font-family="Helvetica, Segoe UI Emoji" font-size="16px" fill="#1e1e1e" text-anchor="middle" style="white-space: pre;" direction="ltr" dominant-baseline="text-before-edge">Validate credentials</text></g><g transform="translate(477.5 217.8) rotate(0 62.5 9.199999999999989)"><text x="62.5" y="0" font-family="Helvetica, Segoe UI Emoji" font-size="16px" fill="#1e1e1e" text-anchor="middle" style="white-space: pre;" direction="ltr" dominant-baseline="text-before-edge">Credentials valid</text></g><g transform="translate(161.5 271.8) rotate(0 97 9.199999999999989)"><text x="97" y="0" font-family="Helvetica, Segoe UI Emoji" font-size="16px" fill="#1e1e1e" text-anchor="middle" style="white-space: pre;" direction="ltr" dominant-baseline="text-before-edge">Authentication successful</text></g><g transform="translate(152 325.8) rotate(0 109 9.199999999999989)"><text x="109" y="0" font-family="Helvetica, Segoe UI Emoji" font-size="16px" fill="#1e1e1e" text-anchor="middle" style="white-space: pre;" direction="ltr" dominant-baseline="text-before-edge">Request /me with auth token</text></g><g transform="translate(473.5 379.8) rotate(0 66.5 9.199999999999989)"><text x="66.5" y="0" font-family="Helvetica, Segoe UI Emoji" font-size="16px" fill="#1e1e1e" text-anchor="middle" style="white-space: pre;" direction="ltr" dominant-baseline="text-before-edge">Fetch user details</text></g><g transform="translate(495 433.8) rotate(0 45 9.199999999999989)"><text x="45" y="0" font-family="Helvetica, Segoe UI Emoji" font-size="16px" fill="#1e1e1e" text-anchor="middle" style="white-space: pre;" direction="ltr" dominant-baseline="text-before-edge">User details</text></g><g transform="translate(176 487.8) rotate(0 82.5 9.199999999999989)"><text x="82.5" y="0" font-family="Helvetica, Segoe UI Emoji" font-size="16px" fill="#1e1e1e" text-anchor="middle" style="white-space: pre;" direction="ltr" dominant-baseline="text-before-edge">User details response</text></g></svg>